<?xml version="1.0" encoding="UTF-8"?>
<svg id="Layer_1" xmlns="http://www.w3.org/2000/svg" version="1.1" viewBox="0 0 1925.49 417.33">
  <defs>
    <style>
      .st0 {
        fill: #fff;
      }
    </style>
  </defs>
  <polygon class="st0" points="369.6 153.28 303.25 352.78 264.66 352.78 217.82 214.86 170.55 352.78 131.95 352.78 66.47 153.28 107.24 153.28 153.64 297.69 203.95 153.28 232.56 153.28 282.01 297.69 328.84 153.28 369.6 153.28"/>
  <path class="st0" d="M744.72,150.25v36.85c-26.89.43-70.26,12.15-70.26,63.32v102.35h-39.03v-199.49h39.03v36.87c15.61-27.33,42.5-39.47,70.26-39.9"/>
  <polygon class="st0" points="896.67 352.78 808.2 259.54 808.2 352.78 769.18 352.78 769.18 70.9 808.2 70.9 808.2 236.11 887.56 153.28 934.4 153.28 843.77 247.83 943.51 352.78 896.67 352.78"/>
  <path class="st0" d="M395.82,231.54c-.82,3.15-1.47,6.37-1.96,9.64.49-3.27,1.15-6.49,1.96-9.64"/>
  <path class="st0" d="M393.82,241.55c.02-.12.02-.25.04-.37-.02.12-.05.22-.07.35,0,0,.02.02.03.02"/>
  <path class="st0" d="M499.83,162.49c.22.03.45.05.67.08-.22-.03-.43-.1-.66-.13,0,.02,0,.03,0,.05"/>
  <path class="st0" d="M395.82,231.54s.02-.06.02-.09h0s0,.07-.02.09"/>
  <path class="st0" d="M528.79,171.72s-.02.02-.03.03c.17.09.33.17.5.25-.16-.08-.3-.19-.47-.27"/>
  <path class="st0" d="M538.19,177.25c-.05-.03-.11-.06-.16-.09.06.03.11.08.16.12v-.03"/>
  <rect class="st0" x="1284.6" y="153.28" width="23.85" height="199.49"/>
  <path class="st0" d="M1361.99,302.03c7.81,20.39,32.09,35.56,65.05,35.56,35.13,0,52.91-13.01,52.91-39.03,0-28.62-39.47-34.69-58.99-39.9-19.51-5.2-69.38-13.44-69.38-54.2,0-36,30.36-55.08,73.73-55.08,39.03,0,66.78,16.92,75.02,39.03l-17.77,9.11c-5.63-15.62-28.62-28.62-57.67-28.62-32.09,0-49.88,13.01-49.88,34.7,0,26.01,35.56,31.22,55.08,36.43,19.95,5.2,73.29,15.18,73.29,57.67,0,39.47-27.76,59.85-76.33,59.85-43.79,0-72.42-18.22-82.4-45.53l17.35-9.98Z"/>
  <path class="st0" d="M1716.24,253.03v8.24h-170.43c3.47,44.23,33.83,74.15,77.63,74.15,30.79,0,53.34-13.87,66.34-32.95l16.91,11.71c-17.34,26.02-46.83,42.5-83.25,42.5-60.29,0-100.61-44.24-100.61-103.65s38.16-103.22,98.01-103.22c56.38,0,95.41,43.8,95.41,103.22M1545.8,243.92h147.88c-3.47-42.93-31.22-73.72-72.85-73.72-43.8,0-71.55,29.92-75.02,73.72"/>
  <path class="st0" d="M419.78,186.66c-3.14,3.08-6.03,6.37-8.66,9.87-.22.28-.44.57-.66.86-.37.52-.74,1.03-1.11,1.56-6.52,9.14-11.39,19.51-14.29,30.67.12.04.27.07.39.1.08.19.19.38.38.57,5.94,5.92,11.77,11.95,17.82,17.74,3.68,3.52,7.6,6.9,12.32,8.95,2.88,1.25,4.84,3.28,6.56,5.68,2.16,3.01,2.35,5.72.02,8.6-2.8,3.46-3.01,10.76.14,14.84,1.46,1.9,3.14,3.63,4.8,5.35,2.01,2.09,4.19,4.04,6.17,6.16,2.5,2.66,4.19,5.82,4.7,9.47.35,2.5.67,5.02.77,7.54.32,7.63-.12,15.24-.92,22.84-.05.57,0,1.01.22,1.36.17.25.43.47.89.62,2.91.98,5.79,2.04,8.67,3.12.39.14.72.17,1.02.09.27-.07.52-.21.79-.44,3.23-2.75,6.13-5.78,8.55-9.26,5.86-8.43,13.12-15.33,21.92-20.64,2.8-1.69,5.54-3.57,8.01-5.71,5.92-5.1,6.69-13.39,2.01-19.68-.41-.53-1.15-.99-1.81-1.13-1.56-.35-3.15-.48-4.74-.71-8.22-1.14-14.31-5.32-17.71-12.94-1.34-3.01-2.21-6.26-3.06-9.46-.82-3.11-1.65-6.17-3.58-8.83-4.09-5.63-11.18-4.75-14.4-2.09-3.04,2.52-6.32,3.04-9.93,2.27-7.61-1.61-13.96-5.48-19.34-11.03-2.3-2.37-3.89-5.18-4.84-8.34-1.61-5.35-2.1-10.82-1.72-16.37.25-3.55.84-7.04,2.5-10.24,1.66-3.21,4.13-5.44,7.87-5.8,2.95-.28,5.65.62,7.86,2.52,1.83,1.58,3.46,3.43,5.05,5.27,1.18,1.36,2.16,2.9,3.3,4.45.35-.45.63-.8.89-1.17,6.62-9.53,12.58-19.45,17.96-29.72,1.67-3.2,4.18-5.21,7.67-6.01,4.06-.94,8.13-.43,12.21-.12,3.1.22,6.22.37,9.32.37,2.3,0,3.86-1.19,4.58-3.45,1.41-4.42,1.46-8.93,1.15-13.51-.2-.04-.34-.07-.5-.12,0-.03.02-.07.03-.1-4.43-.66-8.96-1.06-13.58-1.06-25.6,0-48.81,10.34-65.7,27.07"/>
  <path class="st0" d="M528.45,170.15c3.02,1.57,5.97,3.28,8.79,5.16-2.82-1.88-5.77-3.59-8.79-5.16"/>
  <path class="st0" d="M574.39,224.02c-.08-.26-.23-.57-.39-.82-.13-.2-.29-.37-.47-.45-1.56-.62-3.14-1.3-4.78-1.52-1.06-.14-2.54.12-3.28.81-3.45,3.17-7.62,5.05-11.77,7.02-3.44,1.65-6.91,3.31-10.17,5.31-3.95,2.42-6.52,6.05-7.03,10.73-.77,7.15.61,14,3.61,20.51,1.34,2.9,3.86,4.29,6.97,4.83,2.77.49,5.61.87,8.25,1.78,6.18,2.12,9.99,7.78,9.65,13.91-.17,3.27-1.41,6.22-3,9.03-2.58,4.55-6,8.43-9.66,12.11-1.39,1.4-2.36,3.02-2.54,4.97-.27,2.97-.41,5.95-.61,8.93.03.02.07.02.09.04.1.03.18.07.27.1.31-.27.64-.51.91-.81,3.32-3.74,6.91-7.29,9.92-11.28,10.76-14.21,16.79-30.3,18.33-48.07,1.09-12.68-.37-25.05-4.32-37.13"/>
  <path class="st0" d="M499.08,160.65c.22.03.44.05.67.08-.22-.03-.43-.1-.66-.13,0,.02,0,.03,0,.05"/>
  <path class="st0" d="M528.04,169.88s-.02.02-.03.03c.17.09.33.17.5.25-.16-.08-.3-.19-.47-.27"/>
  <path class="st0" d="M537.44,175.41c-.05-.03-.11-.06-.16-.1.06.04.11.08.16.12v-.02"/>
  <path class="st0" d="M541.85,192.09c1.59,3,4.06,5.11,7.11,6.58.69.33,1.18.37,1.77-.42.79-1.07,1.76-2.09,2.89-2.75,1.24-.73,2.73-1.06,4.19-1.57.02,0,.03,0,.05-.02-.67-.82-1.41-1.6-2.12-2.4-.46-.53-.92-1.07-1.4-1.59-.71-.77-1.44-1.54-2.18-2.28-.87-.91-1.78-1.78-2.7-2.64-.49-.46-.96-.93-1.47-1.38-1.47-1.32-3-2.6-4.56-3.84-.19-.15-.4-.32-.6-.47-1.76-1.37-3.59-2.66-5.44-3.9.22,1.47.37,2.63.57,3.78.77,4.45,1.75,8.85,3.89,12.88"/>
  <path class="st0" d="M485.5,152.23c-55.58,0-100.8,45.22-100.8,100.8s45.22,100.8,100.8,100.8c1.75,0,3.49-.04,5.21-.13,9.74-.49,19.11-2.4,27.93-5.48,39.34-13.75,67.66-51.21,67.66-95.19,0-55.59-45.22-100.8-100.8-100.8M543.45,179.8c1.56,1.24,3.09,2.51,4.56,3.84.51.45.98.92,1.47,1.38.92.86,1.82,1.73,2.7,2.64.74.74,1.47,1.51,2.18,2.28.47.52.94,1.06,1.4,1.59.71.8,1.45,1.56,2.12,2.4-.02,0-.03.02-.05.02-1.46.52-2.95.84-4.19,1.56-1.12.67-2.1,1.69-2.89,2.75-.59.79-1.08.75-1.78.41-3.04-1.46-5.51-3.58-7.1-6.57-2.14-4.04-3.11-8.43-3.89-12.88-.2-1.15-.67-3.86-.73-3.9.06.04.15.09.16.1,0,0,3.69,2.55,5.44,3.93.2.15.4.32.6.47M440.02,334.05c0,.11-.07.22-.15.48,0,.02-.02.03-.02.06-.72-.41-1.39-.86-2.09-1.27-.5-.3-.99-.61-1.49-.92-.78-.48-1.56-.98-2.32-1.49-.97-.64-1.91-1.31-2.85-1.98-.45-.32-.92-.64-1.37-.97-1.32-.99-2.62-2.01-3.89-3.08-.54-.44-1.06-.91-1.58-1.36-.79-.69-1.56-1.38-2.33-2.09-.54-.51-1.07-1.02-1.61-1.53-.85-.83-1.69-1.68-2.5-2.55-.34-.36-.69-.7-1.01-1.07-15.35-16.66-24.75-38.88-24.75-63.26,0-4.53.37-8.96,1-13.32,0,0-.02,0-.03-.02.02-.12.05-.23.08-.35-.02.12-.03.25-.05.37.09.09.18.17.27.27.08-.07.17-.14.25-.21.12.26.23.53.36.8.54.56,1.05,1.16,1.55,1.76,6.17,6.43,12.5,12.71,19.73,17.97,2.5,1.81,5.31,3.22,7.95,4.87.76.47,1.4,1.15,2.08,1.71-5.05,7.2-4.87,19.11,2.97,27.29,1.78,1.86,3.64,3.62,5.48,5.43.54.52,1.07,1.07,1.65,1.56,3.55,3,5.27,6.86,5.21,11.45-.1,7.16-.33,14.31-.52,21.46M459.85,342.2c-.27.23-.52.37-.8.44-.31.07-.63.05-1.02-.1-2.87-1.07-5.76-2.13-8.66-3.11-.46-.16-.72-.37-.9-.62-.23-.34-.28-.78-.22-1.35.79-7.6,1.23-15.21.92-22.85-.1-2.51-.42-5.03-.77-7.53-.52-3.66-2.2-6.81-4.7-9.48-1.98-2.12-4.15-4.06-6.17-6.15-1.66-1.73-3.34-3.46-4.8-5.35-3.14-4.09-2.95-11.38-.13-14.84,2.33-2.88,2.15-5.58-.02-8.6-1.72-2.4-3.68-4.43-6.56-5.68-4.72-2.06-8.65-5.43-12.32-8.95-6.05-5.8-11.88-11.83-17.82-17.74-.2-.19-.31-.38-.39-.57-.12-.04-.27-.07-.39-.11,0,.03-.02.06-.03.09,0-.03.02-.06.03-.09,2.9-11.16,7.78-21.53,14.3-30.66.37-.52.73-1.05,1.11-1.56.22-.29.44-.57.66-.87,2.64-3.49,5.52-6.78,8.66-9.86,16.89-16.73,40.1-27.08,65.7-27.08,4.62,0,9.14.41,13.59,1.07,0-.02,0-.03,0-.05.22.03.43.09.65.13,2.73.42,5.4.97,8.05,1.63-2.65-.65-5.32-1.21-8.05-1.63-.22-.04-.44-.06-.66-.08,0,.02-.02.07-.03.1.16.04.3.07.5.12.31,4.58.25,9.09-1.15,13.51-.72,2.26-2.29,3.45-4.58,3.44-3.11,0-6.22-.15-9.33-.37-4.08-.31-8.15-.81-12.2.12-3.5.81-6,2.81-7.67,6.02-5.38,10.28-11.34,20.2-17.96,29.72-.27.37-.55.72-.9,1.18-1.14-1.56-2.11-3.1-3.29-4.45-1.6-1.85-3.22-3.69-5.06-5.28-2.21-1.9-4.91-2.8-7.85-2.51-3.75.36-6.22,2.58-7.87,5.8-1.66,3.2-2.26,6.69-2.5,10.24-.39,5.55.12,11.03,1.72,16.38.95,3.16,2.54,5.96,4.84,8.34,5.38,5.54,11.73,9.43,19.35,11.03,3.6.76,6.89.24,9.93-2.28,3.21-2.66,10.3-3.54,14.4,2.1,1.92,2.65,2.75,5.72,3.58,8.83.85,3.2,1.72,6.45,3.05,9.45,3.4,7.63,9.49,11.8,17.71,12.95,1.59.22,3.19.36,4.75.7.67.15,1.41.6,1.81,1.14,4.68,6.29,3.91,14.57-2.01,19.68-2.47,2.13-5.21,4.01-8.01,5.7-8.8,5.32-16.06,12.22-21.92,20.64-2.42,3.48-5.33,6.52-8.55,9.26M541.32,326.92c.07.44.03.77-.08,1.06-15.57,11.61-34.87,18.5-55.74,18.5-5.45,0-10.78-.5-15.97-1.4,2.05-2.52,4.09-4.81,5.85-7.29,5.11-7.21,11.31-13.21,18.84-17.88,3.54-2.19,6.99-4.59,10.14-7.27,10.95-9.34,8.34-24.03,2.17-31.71-1.29-1.6-2.89-2.73-4.89-3.17-1.96-.43-3.97-.77-5.97-1.01-4.98-.59-9.19-2.49-11.41-7.22-1.27-2.71-2.18-5.64-2.9-8.57-1.05-4.24-2.3-8.35-4.88-11.96-7.38-10.33-20.44-9.02-26.69-4.03-1.05.84-2.01,1.07-3.24.76-5.39-1.37-10.02-4.11-14.01-7.93-1.78-1.71-2.95-3.76-3.63-6.12-1.32-4.61-1.62-9.3-1.08-14.02.23-2.02.97-3.98,1.61-5.93.34-1.07,1.24-1.26,2.12-.62.95.68,1.92,1.41,2.65,2.3,1.56,1.88,2.91,3.93,4.45,5.82,1.06,1.29,2.15,2.62,3.48,3.63,2.65,2.06,5.88,1.77,8.23-.64,1.17-1.21,2.21-2.54,3.19-3.91,6.87-9.71,12.92-19.93,18.47-30.44.71-1.36,1.69-2.13,3.14-2.15,2.35-.03,4.71.03,7.06.13,3.87.17,7.75.66,11.6.54,6.67-.19,10.68-3.41,12.79-9.74,1.27-3.84,1.59-7.82,1.59-11.84v-2.12c.26.02.4.02.53.04v-.07c6.72,1.74,13.16,4.16,19.22,7.27,0,0,.02-.02.03-.02.1.05.18.11.27.16v.02c-.1-.05-.2-.1-.3-.16-.05.04-.1.07-.15.12.29.27.52.71.55,1.07l.09.9.03.02c.57,5.95,1.41,11.84,3.15,17.59,1.92,6.33,5.21,11.65,10.9,15.29,2.73,1.74,5.62,2.98,8.92,2.56,2.77-.34,5.26-1.26,6.37-4.21.08-.24.49-.52.73-.51,2.68.18,5.39.92,7.14,2.79.3.33.56.71.82,1.07,1.26,1.76,2.12,3.9,3.2,5.83-.03.02-.04.03-.07.04-.17.09-.23.13-.27.13-.33,0-.67-.03-1.01-.03-3-.04-5.88.58-8.1,2.65-3,2.79-6.62,4.39-10.23,6.14-3.77,1.85-7.61,3.64-11.15,5.88-6.47,4.13-10.39,10.09-11,17.83-.64,8.16.93,16.03,4.22,23.52,2.55,5.81,7.09,9.15,13.35,10.19,1.91.32,3.84.57,5.72,1.01,4.39,1.03,6.26,4.41,4.63,8.62-.7,1.82-1.69,3.6-2.88,5.15-1.97,2.56-4.1,5.03-6.37,7.35-3.06,3.14-4.93,6.77-5.38,11.14-.49,4.97-.61,9.93.1,14.88M560.41,309.22c-3.01,3.99-6.59,7.53-9.92,11.28-.27.3-.6.54-.91.81-.09-.03-.17-.07-.27-.11-.03,0-.07-.02-.1-.03.2-2.98.33-5.96.62-8.93.18-1.96,1.14-3.57,2.53-4.97,3.66-3.68,7.08-7.56,9.66-12.11,1.59-2.81,2.82-5.76,3-9.03.33-6.13-3.47-11.79-9.65-13.92-2.64-.91-5.47-1.29-8.25-1.77-3.1-.54-5.63-1.94-6.97-4.84-3-6.5-4.39-13.36-3.61-20.51.51-4.67,3.08-8.3,7.04-10.73,3.25-1.99,6.72-3.65,10.16-5.3,4.14-1.98,8.31-3.85,11.77-7.03.74-.67,2.22-.94,3.28-.8,1.64.22,3.23.9,4.78,1.52.18.07.33.25.47.45.17.25.31.56.39.82,3.94,12.08,5.41,24.45,4.32,37.13-1.53,17.77-7.57,33.86-18.33,48.07"/>
  <polygon class="st0" points="1282.27 75.74 1188.54 352.78 1164.69 352.78 1110.48 194.49 1055.84 352.78 1031.99 352.78 965.21 153.29 990.36 153.29 1045.44 318.95 1102.25 153.29 1119.15 153.29 1175.97 318.95 1257.55 75.74 1282.27 75.74"/>
  <!-- Paper airplane arrow (brand element) — positioned at top of ascending W stroke -->
  <g transform="translate(925, -21) scale(0.75)">
    <path fill="#d4952b" d="M485.55,44.22l-160.25,88.43c.98-.35,2.03-.62,3.17-.71l118.53-14.37,1.33-.16c5.95-.5,11.34,3.5,12.59,9.34l6.21,28.98,33.5-97.31c3.18-9.25-6.04-17.93-15.08-14.19"/>
  </g>
  <path class="st0" d="M1843.2,152.77v22.32c-34.33.86-69.52,21.03-69.52,66.52v111.57h-23.6v-197.4h23.6v36.48c14.59-26.18,41.2-39.05,69.52-39.48"/>
</svg>
